<svg width="29" height="36" viewBox="0 0 29 36" fill="none" xmlns="http://www.w3.org/2000/svg">
<path d="M11.9495 0.120228C7.47847 0.783272 3.79691 3.26564 2.4423 6.51617C2.01016 7.54308 1.89381 8.17378 1.89381 9.41092C1.90212 10.3246 1.93536 10.6642 2.07664 11.1575C2.36751 12.1278 2.57527 12.621 3.00742 13.3164L3.40632 13.9633L2.95755 14.5131C-0.591032 18.928 -0.981625 25.138 1.97691 30.0299C3.08221 31.8654 4.88559 33.6686 6.64742 34.7198L7.17098 35.027L14.3346 34.9704L21.5066 34.9057L21.8473 34.7198C23.0357 34.0486 24.7144 32.5527 25.6535 31.3399C27.0663 29.4963 27.9888 27.3454 28.3794 25.0167C28.5123 24.1838 28.5123 21.7177 28.3711 20.9333C27.9472 18.5156 27.0414 16.4456 25.612 14.6101C25.3377 14.2625 25.1217 13.9714 25.1217 13.9471C25.1217 13.9309 25.2712 13.6803 25.4458 13.3973C25.853 12.7504 26.2186 11.9175 26.4181 11.1898C26.6425 10.3812 26.6425 8.35975 26.4181 7.55116C25.6203 4.68067 23.2269 2.28725 19.8445 0.969246C18.8971 0.597298 17.2765 0.201088 16.2294 0.0717125C15.2571 -0.0414886 12.8554 -0.017231 11.9495 0.120228ZM17.0106 1.43823C21.4484 2.30342 24.6978 5.02028 25.2962 8.36784C25.4291 9.11983 25.346 10.3974 25.1217 11.109C24.8973 11.8043 24.4818 12.621 23.9914 13.3164C23.792 13.5994 23.6258 13.9228 23.6258 14.028C23.6258 14.1331 23.8003 14.408 24.0496 14.6829C26.1272 16.9874 27.2242 19.8741 27.2242 22.9952C27.2159 26.5449 25.853 29.658 23.2269 32.0999C22.7781 32.5204 22.1382 33.046 21.7975 33.2724L21.1742 33.6929L14.3014 33.7171L7.43691 33.7495L6.90504 33.4099C4.977 32.1565 3.24011 30.0866 2.27609 27.8872C1.06276 25.1056 0.938101 21.8794 1.92705 18.9846C2.45061 17.4806 3.14869 16.2516 4.21244 14.9578C4.64458 14.4403 4.84404 14.1331 4.84404 13.9875C4.84404 13.8662 4.62796 13.47 4.34541 13.0577C3.34815 11.6103 2.94093 10.0012 3.18194 8.48104C3.43125 6.94472 4.12933 5.68332 5.41746 4.43001C7.09618 2.80474 9.43974 1.72932 12.1905 1.32503C13.3291 1.15522 15.8471 1.21991 17.0106 1.43823Z" fill="#131313"/>
<path d="M12.3233 2.86132C8.91603 3.41925 6.24836 5.31135 5.37576 7.79372C5.17631 8.35164 5.14307 8.56996 5.14307 9.37047C5.14307 10.171 5.17631 10.3893 5.37576 10.9472C5.50042 11.303 5.73311 11.7962 5.89101 12.0469C6.32316 12.7423 6.5143 12.7665 7.37028 12.249C8.6501 11.4647 10.1211 10.8906 11.6502 10.5753C12.6807 10.365 14.6586 10.2842 15.7805 10.4135C17.534 10.6157 19.4371 11.2464 20.9579 12.1439C21.3901 12.3946 21.8306 12.6048 21.9386 12.6048C22.5702 12.6048 23.3763 10.7855 23.3763 9.37047C23.3763 6.22505 20.3679 3.53245 16.1046 2.86132C15.1988 2.71577 13.1959 2.71577 12.3233 2.86132ZM16.437 4.15506C17.8664 4.46233 19.1795 5.04451 20.1685 5.81267C21.4981 6.83958 22.2128 8.27078 22.0965 9.65347C22.0549 10.2033 21.8472 10.9472 21.7225 11.0281C21.6893 11.0442 21.2239 10.8502 20.692 10.5914C19.5867 10.0578 18.3318 9.62921 17.0603 9.35429C16.2874 9.19258 15.9633 9.16832 14.2348 9.1764C12.5311 9.1764 12.1737 9.20066 11.4341 9.35429C10.1543 9.62921 9.15704 9.96882 7.92708 10.551C6.68882 11.1413 6.7553 11.1494 6.53092 10.4216C6.24005 9.47558 6.42288 8.22227 6.988 7.27622C7.28718 6.77489 8.10992 5.94205 8.70827 5.52967C9.84681 4.74533 10.8441 4.38955 12.9882 4.00143C13.4286 3.92057 15.8719 4.03377 16.437 4.15506Z" fill="#131313"/>
<path d="M15.0827 14.5858C14.85 14.8769 14.85 15.1518 15.091 15.3863C15.2489 15.5399 15.4068 15.5803 15.9802 15.6208C17.0938 15.7016 18.1576 16.0251 19.1133 16.5749C19.7947 16.9792 20.8335 17.9576 21.2989 18.6611C21.9887 19.6718 22.4624 21.1192 22.4624 22.1865C22.4624 22.5585 22.4956 22.6717 22.6702 22.8334C22.9361 23.1002 23.2851 23.1002 23.5428 22.8334C23.7256 22.6474 23.7339 22.5989 23.684 21.8065C23.4513 17.8929 20.1022 14.6262 16.0966 14.4079L15.2655 14.3594L15.0827 14.5858Z" fill="#131313"/>
</svg>
