<svg width="20" height="20" viewBox="0 0 20 20" fill="none" xmlns="http://www.w3.org/2000/svg">
<path d="M17.4895 0.310465L9.60549 8.19447L1.72149 0.310465C1.53187 0.136944 1.28261 0.0432736 1.02564 0.0489673C0.768668 0.054661 0.523803 0.15928 0.342054 0.34103C0.160304 0.52278 0.0556846 0.767645 0.0499909 1.02461C0.0442972 1.28158 0.137968 1.53084 0.311489 1.72047L8.19149 9.60447L0.309489 17.4865C0.213194 17.5782 0.136216 17.6883 0.0830805 17.8103C0.029945 17.9322 0.00172386 18.0636 7.65367e-05 18.1966C-0.00157079 18.3296 0.0233889 18.4616 0.073488 18.5848C0.123587 18.708 0.197814 18.82 0.291807 18.9141C0.3858 19.0082 0.497662 19.0826 0.620816 19.1329C0.74397 19.1832 0.875932 19.2083 1.00894 19.2069C1.14196 19.2054 1.27334 19.1774 1.39536 19.1244C1.51738 19.0715 1.62758 18.9946 1.71949 18.8985L9.60549 11.0165L17.4895 18.9005C17.6791 19.074 17.9284 19.1677 18.1853 19.162C18.4423 19.1563 18.6872 19.0517 18.8689 18.8699C19.0507 18.6882 19.1553 18.4433 19.161 18.1863C19.1667 17.9293 19.073 17.6801 18.8995 17.4905L11.0155 9.60647L18.8995 1.72047C18.9958 1.6287 19.0728 1.5186 19.1259 1.39665C19.179 1.27471 19.2073 1.14337 19.2089 1.01036C19.2106 0.877349 19.1856 0.745351 19.1355 0.622126C19.0854 0.498901 19.0112 0.386934 18.9172 0.292808C18.8232 0.198681 18.7113 0.124295 18.5882 0.0740213C18.465 0.0237476 18.333 -0.00139877 18.2 6.00207e-05C18.067 0.00151881 17.9356 0.0295535 17.8136 0.0825161C17.6916 0.135479 17.5814 0.2123 17.4895 0.308465V0.310465Z" fill="#FCFCFC"/>
</svg>
